<?xml version="1.0" encoding="UTF-8" ?>
<!DOCTYPE svg PUBLIC "-//W3C//DTD SVG 1.1//EN" "http://www.w3.org/Graphics/SVG/1.1/DTD/svg11.dtd">
<svg width="400pt" height="400pt" viewBox="35 25 340 340" version="1.1" xmlns="http://www.w3.org/2000/svg">
<path fill="#ffffff" d=" M 36.43 102.34 C 52.99 102.31 69.55 102.36 86.10 102.31 C 89.66 102.00 93.12 104.05 94.82 107.13 C 100.80 117.59 106.91 127.98 112.85 138.46 C 113.79 139.68 112.57 140.95 112.10 142.06 C 103.20 157.32 94.48 172.67 85.61 187.93 C 69.25 159.38 52.76 130.91 36.43 102.34 Z" />
<path fill="#ffffff" d=" M 143.92 106.94 C 145.54 104.15 148.68 102.28 151.92 102.34 C 168.75 102.31 185.58 102.33 202.42 102.34 C 183.85 134.13 165.62 166.13 147.24 198.04 C 156.21 213.89 165.46 229.57 174.35 245.46 C 188.69 245.48 203.03 245.45 217.37 245.47 C 208.03 261.53 198.86 277.69 189.51 293.75 C 181.66 293.80 173.81 293.73 165.96 293.79 C 158.05 293.86 149.72 291.74 143.85 286.17 C 139.42 282.35 136.91 276.97 134.05 271.99 C 119.80 247.36 105.71 222.63 91.41 198.03 C 109.08 167.76 126.40 137.28 143.92 106.94 Z" />
<path fill="#ffffff" d=" M 213.99 102.34 C 222.69 102.35 231.40 102.25 240.10 102.38 C 250.12 102.69 260.21 107.81 265.12 116.78 C 280.77 143.84 296.35 170.94 311.96 198.03 C 294.75 228.12 277.35 258.12 260.16 288.22 C 258.39 291.50 254.92 294.10 251.06 293.79 C 234.43 293.74 217.79 293.78 201.16 293.77 C 219.26 262.30 237.38 230.83 255.47 199.36 C 256.33 198.24 255.66 197.01 255.08 195.96 C 246.32 180.93 237.70 165.82 229.01 150.75 C 214.72 150.68 200.42 150.77 186.13 150.71 C 195.36 134.56 204.68 118.45 213.99 102.34 Z" />
<path fill="#ffffff" d=" M 290.01 256.47 C 299.26 240.32 308.59 224.24 317.84 208.10 C 334.30 236.66 350.58 265.33 367.28 293.75 C 350.50 293.79 333.71 293.76 316.93 293.77 C 313.70 293.81 310.34 292.22 308.84 289.28 C 302.66 278.29 296.08 267.52 290.01 256.47 Z" />
</svg>
