<svg xmlns="http://www.w3.org/2000/svg" width="50" height="50" viewBox="0 0 50 50">
  <style>path{fill:#fff;}</style>
    <path d="M 28.1875 0 C 30.9375 6.363 18.32725 10.29175 17.15625 15.59375 C 16.08025 20.46475 24.64925 26.125 24.65625 26.125 C 23.35425 24.111 22.39975 22.4495 21.09375 19.3125 C 18.88575 14.0065 34.5335 9.206 28.1875 0 z M 36.5625 8.8125 C 36.5625 8.8125 25.5005 9.52175 24.9375 16.59375 C 24.6865 19.74175 27.8475 21.3965 27.9375 23.6875 C 28.0105 25.5585 26.0625 27.125 26.0625 27.125 C 26.0625 27.125 29.60875 26.45075 30.71875 23.59375 C 31.94975 20.42675 28.3205 18.286 28.6875 15.75 C 29.0385 13.324 36.5625 8.8125 36.5625 8.8125 z M 19.1875 25.15625 C 19.1875 25.15625 9.0625 25.01 9.0625 27.875 C 9.0635 30.866 22.31725 31.09 31.78125 29.25 C 31.78125 29.25 34.29675 27.521 34.96875 26.875 C 28.76675 28.139 14.625 28.2825 14.625 27.1875 C 14.625 26.1785 19.1875 25.15625 19.1875 25.15625 z M 38.65625 25.15625 C 37.663538 25.234028 36.59375 25.615312 35.625 26.3125 C 37.908 25.8205 39.84375 27.23275 39.84375 28.84375 C 39.84375 32.46775 34.59375 35.875 34.59375 35.875 C 34.59375 35.875 42.71875 34.954 42.71875 29 C 42.71875 26.296062 40.840217 24.985138 38.65625 25.15625 z M 16.75 30.71875 C 15.196 30.71875 12.875 31.93875 12.875 33.09375 C 12.875 35.41875 24.56275 37.2085 33.21875 33.8125 L 30.21875 31.96875 C 24.35175 33.84675 13.548 33.23275 16.75 30.71875 z M 18.1875 35.9375 C 16.0595 35.9375 14.65625 37.2225 14.65625 38.1875 C 14.65625 41.1725 27.37025 41.4725 32.40625 38.4375 L 29.21875 36.40625 C 25.45775 37.99725 16.0155 38.2375 18.1875 35.9375 z M 11.09375 38.625 C 7.6261387 38.555902 5.375 40.113875 5.375 41.40625 C 5.374 48.28225 40.875 47.9635 40.875 40.9375 C 40.875 39.7705 39.52725 39.2025 39.03125 38.9375 C 41.93225 45.6555 9.96875 45.11925 9.96875 41.15625 C 9.96875 40.25225 12.322 39.3905 14.5 39.8125 L 12.65625 38.75 C 12.114375 38.668125 11.589123 38.634871 11.09375 38.625 z M 44.625 43.25 C 39.225 48.369 25.54525 50.2235 11.78125 47.0625 C 25.54425 52.6935 44.557 49.536 44.625 43.25 z"/>
</svg>
