<?xml version="1.0" standalone="no"?>
<!DOCTYPE svg PUBLIC "-//W3C//DTD SVG 20010904//EN"
 "http://www.w3.org/TR/2001/REC-SVG-20010904/DTD/svg10.dtd">
<svg version="1.0" xmlns="http://www.w3.org/2000/svg"
 width="400.000000pt" height="400.000000pt" viewBox="40 40 320.000000 320.000000"
 preserveAspectRatio="xMidYMid meet">
<metadata>
Created by potrace 1.14, written by Peter Selinger 2001-2017
</metadata>
<g transform="translate(0.000000,400.000000) scale(0.100000,-0.100000)"
fill="#ffffff" stroke="none">
<path d="M1881 3412 c-34 -7 -33 -7 25 -20 314 -69 589 -244 744 -473 255
-375 235 -924 -48 -1305 -126 -170 -283 -280 -475 -334 l-72 -20 140 4 c493
18 847 214 1019 564 69 139 96 266 103 483 l6 176 -34 74 c-84 182 -173 310
-306 442 -208 205 -475 344 -753 391 -101 17 -301 27 -349 18z"/>
<path d="M1345 3267 c-497 -250 -795 -736 -795 -1292 0 -55 5 -118 12 -140
l11 -40 22 85 c37 143 75 250 132 365 182 368 482 587 856 625 417 42 852
-183 1027 -531 43 -85 80 -204 80 -258 0 -26 3 -32 11 -24 8 8 10 70 6 215 -5
172 -10 218 -31 300 -52 200 -132 345 -256 462 -196 184 -438 269 -810 283
l-155 5 -110 -55z"/>
<path d="M1536 2710 c-385 -49 -659 -252 -787 -584 -63 -163 -99 -365 -99
-559 l0 -119 60 -116 c170 -332 470 -589 825 -705 143 -47 211 -58 405 -63
l185 -5 -105 34 c-290 92 -472 198 -636 369 -91 96 -139 164 -194 280 -70 146
-84 217 -84 423 -1 158 2 191 23 270 63 241 197 448 383 591 114 88 310 162
437 165 l56 2 -45 8 c-70 13 -347 19 -424 9z"/>
<path d="M1909 2337 c-62 -18 -140 -69 -188 -123 -141 -161 -130 -408 26 -555
238 -225 617 -95 674 230 30 167 -68 350 -226 425 -49 23 -77 29 -150 32 -55
3 -108 -1 -136 -9z"/>
<path d="M3371 1942 c-103 -296 -282 -540 -501 -681 -112 -72 -218 -116 -350
-143 -134 -28 -344 -21 -479 16 -413 115 -712 437 -738 796 -3 50 -7 89 -9 88
-10 -11 -26 -199 -25 -318 0 -312 86 -552 261 -731 193 -197 470 -302 835
-315 l140 -6 108 56 c153 79 256 154 377 275 256 256 397 575 417 941 3 66 4
120 2 120 -2 0 -19 -44 -38 -98z"/>
</g>
</svg>
