<?xml version="1.0" standalone="no"?>
<!DOCTYPE svg PUBLIC "-//W3C//DTD SVG 20010904//EN"
 "http://www.w3.org/TR/2001/REC-SVG-20010904/DTD/svg10.dtd">
<svg version="1.0" xmlns="http://www.w3.org/2000/svg"
 width="1187.000000pt" height="1187.000000pt" viewBox="0 0 1187.000000 1187.000000"
 preserveAspectRatio="xMidYMid meet" style="background: white">

<g transform="translate(0.000000,1187.000000) scale(0.100000,-0.100000)"
fill="#007acc" stroke="none">
<path d="M0 5935 l0 -5935 5935 0 5935 0 0 5935 0 5935 -5935 0 -5935 0 0
-5935z m9276 515 c184 -15 292 -35 429 -81 216 -72 393 -181 560 -344 132
-129 325 -378 325 -419 0 -19 -86 -84 -340 -253 -368 -245 -483 -316 -500
-306 -8 5 -52 59 -97 119 -103 137 -176 204 -278 255 -101 50 -191 69 -329 69
-179 0 -305 -43 -401 -138 -91 -90 -130 -205 -123 -369 3 -92 7 -107 43 -179
85 -173 212 -258 725 -483 682 -300 1003 -490 1236 -730 151 -156 244 -311
315 -521 61 -184 82 -320 83 -550 1 -205 -7 -278 -49 -441 -143 -559 -624
-950 -1329 -1080 -81 -15 -172 -22 -336 -26 -395 -10 -646 21 -934 117 -430
144 -770 382 -1001 703 -88 122 -185 276 -185 293 0 15 40 39 540 328 285 165
357 203 365 192 6 -8 39 -56 75 -107 79 -113 236 -274 346 -356 360 -266 1000
-254 1270 23 97 100 129 196 122 370 -4 101 -7 118 -37 178 -89 181 -245 280
-889 565 -583 258 -808 394 -1032 620 -226 227 -378 526 -411 806 -19 162 -16
500 5 600 103 482 422 853 891 1039 116 45 305 94 409 105 117 12 382 13 532
1z m-2500 -53 c1 -1 3 -220 5 -487 l4 -485 -772 -3 -773 -2 0 -2195 0 -2195
-550 0 -550 0 0 2195 0 2195 -770 0 -770 0 0 459 c0 252 3 473 6 490 l6 31
317 3 c287 3 3844 -3 3847 -6z"/>
</g>
</svg>
