<?xml version="1.0" standalone="no"?>
<!DOCTYPE svg PUBLIC "-//W3C//DTD SVG 20010904//EN" "http://www.w3.org/TR/2001/REC-SVG-20010904/DTD/svg10.dtd">
<svg version="1.0" xmlns="http://www.w3.org/2000/svg" width="520.000000pt" height="245.000000pt" viewBox="100 0 300 200" preserveAspectRatio="xMidYMid meet">
<g transform="translate(0.000000,245.000000) scale(0.100000,-0.100000)"
fill="#000000" stroke="none">
<path d="M2172 1997 c-232 -232 -422 -427 -422 -432 0 -6 192 -202 428 -438
l427 -427 183 183 182 182 0 248 0 247 245 0 c135 0 245 3 245 8 0 11 -844
852 -855 852 -6 0 -200 -190 -433 -423z m615 -249 c95 -95 173 -176 173 -180
0 -5 -79 -8 -175 -8 l-175 0 0 -175 c0 -96 -3 -175 -7 -175 -12 0 -353 343
-353 355 0 13 342 355 355 355 5 0 87 -78 182 -172z"/>
</g>
</svg>
